# xmcd
#
# Track frame offsets:
#   150
#   17135
#   32725
#   48157
#   65866
#   81629
#   95289
#   112846
#   125770
#   143439
#   160658
#   181272
#   196762
#   212229
#   226533
#   241622
#   258813
#
# Disc length: 3638 seconds
#
# Revision: 2
# Processed by: cddbd v1.5.1PL0 Copyright (c) Steve Scherf et al.
# Submitted via: Media_Universe 3.0
#
DISCID=d50e3411
DTITLE=Glykeria - CD 2
DYEAR=2003
DGENRE=Country
TTITLE0=O Ioudas filouse uperoxa
TTITLE1=To lathos
TTITLE2=Kai oti po
TTITLE3=Se mia sxedia
TTITLE4=Ola
TTITLE5=Leli leli
TTITLE6=Magepses ti nuxta
TTITLE7=Kai olo ego perimena
TTITLE8=Xiliades giati
TTITLE9=Kathotane se keino to trapezi
TTITLE10=Kane kati
TTITLE11=Osoi agapisan
TTITLE12=Ase na pethano
TTITLE13=Ta potiria
TTITLE14=Kokkina xeili
TTITLE15=Gia tin Ellada
TTITLE16=Karampimperim
EXTD=
EXTT0=
EXTT1=
EXTT2=
EXTT3=
EXTT4=
EXTT5=
EXTT6=
EXTT7=
EXTT8=
EXTT9=
EXTT10=
EXTT11=
EXTT12=
EXTT13=
EXTT14=
EXTT15=
EXTT16=
PLAYORDER=
